<?xml version="1.0" encoding="utf-8"?><svg style="display:none" width="0" height="0" xmlns="http://www.w3.org/2000/svg" xmlns:xlink="http://www.w3.org/1999/xlink"><symbol viewBox="0 0 100 100" id="icon-Accordion" xmlns="http://www.w3.org/2000/svg"><title>Accordion</title><description>A chevron sign</description><path fill="none" vector-effect="non-scaling-stroke" d="M6 28l44 43 44-43"/></symbol><symbol viewBox="0 0 100 100" id="icon-Action" xmlns="http://www.w3.org/2000/svg"><title>Action</title><description>A movie clapperboard</description><g fill="none" fill-rule="evenodd"><path vector-effect="non-scaling-stroke" d="M10.739 93H93V40.637H31.928l58.579-17.434L84.275 7 7 30.681l3.739 9.971zM26.5 65h50"/></g></symbol><symbol viewBox="0 0 100 100" id="icon-Add" xmlns="http://www.w3.org/2000/svg"><title>Add</title><description>A plus sign</description><path vector-effect="non-scaling-stroke" d="M94 50H6M50 6v88" fill="none" fill-rule="evenodd" stroke-linecap="square"/></symbol><symbol viewBox="0 0 100 100" id="icon-Cancel" xmlns="http://www.w3.org/2000/svg"><title>Close</title><description>Two lines intersecting at 45 degree angles and continuing on to form an X shape</description><g fill="none" fill-rule="evenodd" stroke-linecap="square"><path vector-effect="non-scaling-stroke" d="M7.499 7.499L92.5 92.5M92.501 7.499L7.5 92.5"/></g></symbol><symbol viewBox="0 0 100 100" id="icon-Copy" xmlns="http://www.w3.org/2000/svg"><title>Copy</title><description>Two matching documents</description><g fill="none" fill-rule="evenodd"><path vector-effect="non-scaling-stroke" d="M42 23h48v70H42z"/><path vector-effect="non-scaling-stroke" d="M58 8H11v68h12.902"/></g></symbol><symbol viewBox="0 0 100 100" id="icon-Delete" xmlns="http://www.w3.org/2000/svg"><title>Delete</title><description>Trash can</description><g fill="none" fill-rule="evenodd"><path vector-effect="non-scaling-stroke" d="M21 14h58v80H21V55zM36 24.667v58.666m14-58.666v58.666m15-58.666v58.666M14 14h72M42 13V7h16v6"/></g></symbol><symbol viewBox="0 0 100 100" id="icon-Done" xmlns="http://www.w3.org/2000/svg"><title>Done</title><description>A checkmark symbol</description><path fill="none" vector-effect="non-scaling-stroke" d="M93 7L26 92 7.493 73.493"/></symbol><symbol viewBox="0 0 100 100" id="icon-DragHandle" xmlns="http://www.w3.org/2000/svg"><title>Drag</title><description>Two horizontal lines, one above the other</description><path vector-effect="non-scaling-stroke" d="M80 70H20m60-40H20" fill="none" fill-rule="evenodd"/></symbol><symbol viewBox="0 0 100 100" id="icon-Edit" xmlns="http://www.w3.org/2000/svg"><title>Edit</title><description>A pencil symbol</description><path fill="none" vector-effect="non-scaling-stroke" d="M93 26L74 7 14 67 7 93l26-7z"/></symbol><symbol viewBox="0 0 14 14" id="icon-Error" xmlns="http://www.w3.org/2000/svg"><title>Error</title><description>A circular warning symbol</description><g fill="none" fill-rule="evenodd"><circle vector-effect="non-scaling-stroke" cx="7" cy="7" r="6.5"/><path vector-effect="non-scaling-stroke" d="M7 3.5v5m0 2v1"/></g></symbol><symbol viewBox="0 0 100 100" id="icon-Expand" xmlns="http://www.w3.org/2000/svg"><title>Expand</title><description>An arrow pointing out from a flat base</description><g fill="none" fill-rule="evenodd"><path vector-effect="non-scaling-stroke" d="M6.178 61.911L50.089 18l43.912 43.911M6 83h88"/></g></symbol><symbol viewBox="0 0 100 100" id="icon-Export" xmlns="http://www.w3.org/2000/svg"><title>Export</title><description>A right facing arrow moving out of a document</description><g fill="none" fill-rule="evenodd"><path vector-effect="non-scaling-stroke" d="M71 7H7v86h64M90 50H30"/><path vector-effect="non-scaling-stroke" d="M70.639 72.361l20.723-22.195-20.723-21.805"/></g></symbol><symbol viewBox="0 0 100 100" id="icon-Favorite" xmlns="http://www.w3.org/2000/svg"><title>Toggle Favorite</title><description>A star shape</description><path vector-effect="non-scaling-stroke" d="M50 76.334L22.045 92 29 61.056 8 40.557l29.021-4.223L50 8l12.979 28.334L92 40.557 71 61.056 77.955 92z"/></symbol><symbol viewBox="0 0 100 100" id="icon-Filter" xmlns="http://www.w3.org/2000/svg"><title>Filter</title><description>A simplified filter cone</description><path vector-effect="non-scaling-stroke" d="M92 7H8l32.455 50.81V93h19.09V57.797z"/></symbol><symbol viewBox="0 0 14 14" id="icon-Global" xmlns="http://www.w3.org/2000/svg"><title>Global</title><description>A symbol of a globe</description><g fill="none" fill-rule="evenodd" transform="translate(.5 .5)"><circle vector-effect="non-scaling-stroke" cx="6.509" cy="6.509" r="6.249"/><ellipse vector-effect="non-scaling-stroke" cx="6.509" cy="6.509" rx="3.124" ry="6.249"/><path vector-effect="non-scaling-stroke" d="M1.666 10.484C2.812 9.782 4.556 9.34 6.51 9.34c1.927 0 3.645.443 4.817 1.12m.026-7.926c-1.146.703-2.89 1.146-4.843 1.146-1.927 0-3.645-.443-4.817-1.12"/></g></symbol><symbol viewBox="0 0 100 100" id="icon-Hamburger" xmlns="http://www.w3.org/2000/svg"><title>Main Menu</title><description>Three horizontal lines stacked above one another</description><path vector-effect="non-scaling-stroke" d="M6 7h88M6 50h88M6 93h88" fill="none" fill-rule="evenodd"/></symbol><symbol viewBox="0 0 100 100" id="icon-Help" xmlns="http://www.w3.org/2000/svg"><title>Help</title><description>A question mark inside a circle</description><g fill="none" fill-rule="evenodd"><circle vector-effect="non-scaling-stroke" cx="50.02" cy="72.02" r="1.02" fill="#000"/><path vector-effect="non-scaling-stroke" d="M38.902 41.427V40.36c0-6.17 5.001-11.171 11.17-11.171a10.244 10.244 0 0110.205 11.13l-.098 1.145a11.121 11.121 0 01-11.08 10.16M49.785 62.763V51.545"/><circle vector-effect="non-scaling-stroke" cx="50" cy="50" r="44"/></g></symbol><symbol viewBox="0 0 100 100" id="icon-Overflow" xmlns="http://www.w3.org/2000/svg"><title>Overflow</title><description>An icon consisting of three stacked vertical squares to indicate additional options</description><g fill-rule="evenodd"><path vector-effect="non-scaling-stroke" d="M39 6h22v22H39zM39 72h22v22H39zM39 39h22v22H39z"/></g></symbol><symbol viewBox="0 0 100 100" id="icon-Search" xmlns="http://www.w3.org/2000/svg"><title>Search</title><description>A magnifying glass</description><g fill="none" fill-rule="evenodd"><circle vector-effect="non-scaling-stroke" cx="38.5" cy="38.5" r="31.5"/><path vector-effect="non-scaling-stroke" d="M61.5 61.5l32.016 32.016"/></g></symbol><symbol viewBox="0 0 100 100" id="icon-SortAscending" xmlns="http://www.w3.org/2000/svg"><title>Sort Ascending</title><description>The letter A appearing over Z with an arrow indicating the direction of A to Z</description><g fill="none" fill-rule="evenodd"><path vector-effect="non-scaling-stroke" d="M28 7v84.848M58.065 41.871L75.216 7.813l17.15 34.058M66.323 26.336h17.785M6 72l22.195 20.723L50 72M57.141 58.602h34.262L59 92h35"/></g></symbol><symbol viewBox="0 0 100 100" id="icon-SortDescending" xmlns="http://www.w3.org/2000/svg"><title>Sort Descending</title><description>The letter A appearing over Z with an arrow indicating the direction of Z to A</description><g fill="none" fill-rule="evenodd"><path vector-effect="non-scaling-stroke" d="M28 92.848V8M58.065 41.871L75.216 7.813l17.15 34.058M66.323 26.336h17.785M6 27.723L28.195 7 50 27.723M57.141 58.602h34.262L59 92h35"/></g></symbol><symbol viewBox="0 0 100 100" id="icon-Subtract" xmlns="http://www.w3.org/2000/svg"><title>Subtract</title><description>A minus sign</description><path fill="none" vector-effect="non-scaling-stroke" d="M94 50H6"/></symbol><symbol viewBox="0 0 100 100" id="icon-View" xmlns="http://www.w3.org/2000/svg"><title>View</title><description>A symbol of an eye</description><g fill="none" fill-rule="evenodd"><path vector-effect="non-scaling-stroke" d="M50.5 66C61.822 66 71 56.822 71 45.5c0-6.733-3.246-12.709-8.26-16.446-3.415-2.547-20.898-2.605-24.279-.149C33.334 32.632 30 38.676 30 45.5 30 56.822 39.178 66 50.5 66z"/><circle vector-effect="non-scaling-stroke" cx="50" cy="45" r="7"/><path vector-effect="non-scaling-stroke" d="M7 49c17.217-24.023 50.648-29.541 74.672-12.324a53.515 53.515 0 0111.98 11.85L94 49l-.347.473C76.175 73.307 42.685 78.46 18.85 60.981A53.515 53.515 0 017 49z"/></g></symbol></svg>