<svg xmlns="http://www.w3.org/2000/svg" width="100" height="100" viewBox="0 0 100 100">
	<title>Alerts</title>
	<description>A symbol of a bell</description>
  <g fill="none" fill-rule="evenodd" transform="translate(16 7)">
    <path vector-effect="non-scaling-stroke" d="M29,8 L29,4 C29,1.8 30.8,0 33,0 C35.2,0 37,1.8 37,4 L37,8"/>
    <path vector-effect="non-scaling-stroke" d="M25.336 76.0043982C25.112875 76.6729308 25 77.3898441 25 78.2035186 25 83.0415834 29.725 87 35.5 87 41.275 87 46 83.0415834 46 78.2035186 46 77.3964414 45.88975 76.6795282 45.666625 76.0153938 45.664 76.0109956 45.664 76.0043982 45.661375 76M58.2857143 50.6666667L58.2857143 32.1777778C58.2857143 18.0005926 48.5252857 8 34 8 19.4747143 8 9.71428571 17.6734815 9.71428571 31.853037L9.71428571 50.3419259C9.71428571 55.4974815 7.04285714 61.2598519 4.40057143 65.5573333L0 72 68 72 63.597 65.554963C60.9571429 61.2598519 58.2857143 55.8222222 58.2857143 50.6666667z"/>
  </g>
</svg>
