<svg xmlns="http://www.w3.org/2000/svg" width="14" height="14" viewBox="0 0 14 14">
	<title>Point Marker</title>
	<description>A point marker denoting a site or location</description>
  <g fill="none" fill-rule="evenodd">
    <path vector-effect="non-scaling-stroke" d="M7,1 C9.49483825,1 11.5,2.72462196 11.5,4.87041037 C11.5,6.64902815 10.3310546,8.76349885 9.13950893,10.4168467 C8.14132246,11.8023759 7.29631696,12.6943844 7,13 C6.70117204,12.6965443 5.85616621,11.8239742 4.86049107,10.4514039 C3.67020089,8.80993521 2.5,6.69222469 2.5,4.87041037 C2.5,2.72462196 4.50516175,1 7,1 Z"/>
    <path vector-effect="non-scaling-stroke" d="M7,4 C6.17382807,4 5.5,4.67382807 5.5,5.5 C5.5,6.32617193 6.17382807,7 7,7 C7.82617193,7 8.5,6.32617193 8.5,5.5 C8.5,4.67382807 7.82617193,4 7,4 Z"/>
  </g>
</svg>
