<svg xmlns="http://www.w3.org/2000/svg" width="100" height="100" viewBox="0 0 100 100">
	<title>Settings</title>
	<description>A cog wheel</description>
  <g fill="none" fill-rule="evenodd" stroke-linecap="round" stroke-linejoin="round" transform="translate(7 7)">
    <path vector-effect="non-scaling-stroke" d="M86,51.5999544 L86,34.4000456 L76.8014288,32.1002886 C76.211256,30.269064 75.464069,28.5110977 74.5982082,26.8231943 L79.4864183,18.6753408 L67.3244311,6.51289703 L59.1765776,11.4017918 C57.4886743,10.535931 55.730936,9.78874397 53.8997114,9.19857122 L51.5999544,0 L34.4000456,0 L32.1002886,9.19857122 C30.269064,9.78874397 28.5113261,10.535931 26.8234228,11.4017918 L18.6755689,6.51289703 L6.51358167,18.6753408 L11.4017918,26.8231943 C10.535931,28.5113261 9.78874397,30.269064 9.19857122,32.1002886 L0,34.4000456 L0,51.5999544 L9.19857122,53.8997114 C9.78874397,55.730936 10.535931,57.4884458 11.4017918,59.1765776 L6.51358167,67.3244311 L18.6755689,79.4864183 L26.8227378,74.5977517 C28.5110977,75.4638405 30.2688359,76.211256 32.1002886,76.8014288 L34.4000456,86 L51.5999544,86 L53.8997114,76.8014288 C55.7311641,76.211256 57.4889023,75.4638405 59.1772622,74.5977517 L67.3244311,79.4864183 L79.4864183,67.3244311 L74.5982082,59.1765776 C75.464069,57.4886743 76.211256,55.730936 76.8014288,53.8997114 L86,51.5999544 Z"/>
    <circle vector-effect="non-scaling-stroke" cx="42.5" cy="42.5" r="20.5"/>
  </g>
</svg>
