<svg xmlns="http://www.w3.org/2000/svg" width="100" height="100" viewBox="0 0 100 100">
	<title>View</title>
	<description>A symbol of an eye</description>	
  <g fill="none" fill-rule="evenodd">
    <g>
      <path vector-effect="non-scaling-stroke" d="M50.5,66 C61.8218374,66 71,56.8218374 71,45.5 C71,38.7665301 67.7536169,32.7912936 62.7406353,29.0540752 C59.3246549,26.507434 41.8418159,26.4488266 38.461499,28.905292 C33.3338236,32.6315572 30,38.6764505 30,45.5 C30,56.8218374 39.1781626,66 50.5,66 Z"/>
      <circle vector-effect="non-scaling-stroke" cx="50" cy="45" r="7"/>
    </g>
    <path vector-effect="non-scaling-stroke" d="M7,49 L7,49 L7,49 C24.2166934,24.9767069 57.6483079,19.4588676 81.671601,36.675561 C86.2662045,39.9683602 90.3100982,43.9683157 93.6528939,48.5266735 L94,49 L93.6528939,49.4733265 L93.6528939,49.4733265 C76.1747895,73.3071053 42.6848912,78.4593973 18.8511125,60.9812929 C14.2927547,57.6384972 10.2927992,53.5946036 7,49 L7,49 Z"/>
  </g>
</svg>
