<svg xmlns="http://www.w3.org/2000/svg" width="100" height="100" viewBox="0 0 100 100">
	<title>Persona</title>
	<description>A symbol of a person</description>
  <g fill="none" fill-rule="evenodd" stroke-linejoin="round" transform="translate(10 7)">
    <path vector-effect="non-scaling-stroke" d="M29.8421053,47.7753562 L29.8421053,59.0491176 L8.48794737,66.4668297 C3.39773684,68.2372953 0,72.9226026 0,78.1800978 L0,86 L81,86 L81,78.1800978 C81,72.9226026 77.6022632,68.2372953 72.5120526,66.4668297 L51.1578947,59.0491176 L51.1578947,47"/>
    <path vector-effect="non-scaling-stroke" d="M62,25.5 C62,39.5845 52.3723,51 40.5,51 C28.6234,51 19,39.5845 19,25.5 C19,11.4155 28.6234,0 40.5,0 C52.3723,0 62,11.4155 62,25.5 L62,25.5 Z"/>
    <path vector-effect="non-scaling-stroke" d="M61,22.4760209 C60.2864799,22.5593966 59.7938113,22.5316047 59.0760441,22.6626237 C51.8431591,23.9648727 47.1967843,21.5152152 43.217211,15 C40.8260694,19.2799525 33.3553443,22.6626237 27.2224694,22.6626237 C24.2027505,22.6626237 21.6034988,22.082964 19,20.8124772"/>
  </g>
</svg>
